# 3ds Max Wavefront OBJ Exporter v0.99 - (c)2007 guruware
# File Created: 01.10.2022 15:17:24

mtllib title-deed.mtl

#
# object Plane001
#

v  -10.5000 0.0000 -14.8500
v  -10.5000 0.0000 14.8500
v  10.5000 0.0000 14.8500
v  10.5000 0.0000 -14.8500
# 4 vertices

vn 0.0000 1.0000 -0.0000
# 1 vertex normals

vt 0.1818 0.9715 0.0000
vt 0.1900 0.0648 0.0000
vt 0.7832 0.0701 0.0000
vt 0.7751 0.9768 0.0000
# 4 texture coords

o Plane001
g Plane001
usemtl 01___Default
s 1
f 1/1/1 2/2/1 3/3/1 4/4/1 
# 1 polygons

